<svg width="20" height="20" viewBox="0 0 20 20" fill="none" xmlns="http://www.w3.org/2000/svg">
<mask id="mask0_5_230" style="mask-type:alpha" maskUnits="userSpaceOnUse" x="0" y="0" width="20" height="20">
<rect width="20" height="20" fill="#D9D9D9"/>
</mask>
<g mask="url(#mask0_5_230)">
<path d="M16 17C14.4722 17 12.9306 16.6459 11.375 15.9375C9.81944 15.2292 8.38889 14.2222 7.08333 12.9167C5.77778 11.6111 4.77083 10.1806 4.0625 8.62502C3.35417 7.06946 3 5.52085 3 3.97919V2.97919H7.60417L8.39583 6.52085L5.95833 8.97919C6.27778 9.52085 6.62153 10.0347 6.98958 10.5209C7.35764 11.007 7.74306 11.4514 8.14583 11.8542C8.53472 12.2431 8.95833 12.6146 9.41667 12.9688C9.875 13.3229 10.3889 13.6736 10.9583 14.0209L13.4583 11.5834L17 12.3334V17H16Z" fill="black"/>
</g>
</svg>
